<mxfile host="app.diagrams.net" agent="Mozilla/5.0 (Windows NT 10.0; Win64; x64; rv:129.0) Gecko/20100101 Firefox/129.0" version="24.7.7">
  <diagram name="Page-1" id="-FKEwW-FKK_8qFn8X8Nz">
    <mxGraphModel dx="955" dy="507" grid="1" gridSize="10" guides="1" tooltips="1" connect="1" arrows="1" fold="1" page="1" pageScale="1" pageWidth="850" pageHeight="1100" math="0" shadow="0">
      <root>
        <mxCell id="0" />
        <mxCell id="1" parent="0" />
        <mxCell id="DIYR7FrUqi3x6OOJs0Yp-1" value="User" style="rounded=1;whiteSpace=wrap;html=1;" vertex="1" parent="1">
          <mxGeometry x="330" y="20" width="110" height="40" as="geometry" />
        </mxCell>
        <mxCell id="DIYR7FrUqi3x6OOJs0Yp-3" value="Login / Singup" style="rounded=1;whiteSpace=wrap;html=1;" vertex="1" parent="1">
          <mxGeometry x="330" y="90" width="110" height="40" as="geometry" />
        </mxCell>
        <mxCell id="DIYR7FrUqi3x6OOJs0Yp-5" value="Home Page" style="rounded=1;whiteSpace=wrap;html=1;" vertex="1" parent="1">
          <mxGeometry x="330" y="170" width="110" height="40" as="geometry" />
        </mxCell>
        <mxCell id="DIYR7FrUqi3x6OOJs0Yp-7" value="" style="line;strokeWidth=2;direction=south;html=1;" vertex="1" parent="1">
          <mxGeometry x="380" y="210" width="10" height="20" as="geometry" />
        </mxCell>
        <mxCell id="DIYR7FrUqi3x6OOJs0Yp-9" value="" style="line;strokeWidth=2;html=1;" vertex="1" parent="1">
          <mxGeometry x="200" y="230" width="390" height="10" as="geometry" />
        </mxCell>
        <mxCell id="DIYR7FrUqi3x6OOJs0Yp-11" style="edgeStyle=orthogonalEdgeStyle;rounded=0;orthogonalLoop=1;jettySize=auto;html=1;exitX=1;exitY=0.5;exitDx=0;exitDy=0;exitPerimeter=0;entryX=0.475;entryY=0.42;entryDx=0;entryDy=0;entryPerimeter=0;" edge="1" parent="1" source="DIYR7FrUqi3x6OOJs0Yp-7" target="DIYR7FrUqi3x6OOJs0Yp-9">
          <mxGeometry relative="1" as="geometry" />
        </mxCell>
        <mxCell id="DIYR7FrUqi3x6OOJs0Yp-12" value="" style="line;strokeWidth=2;direction=south;html=1;" vertex="1" parent="1">
          <mxGeometry x="200" y="240" width="10" height="160" as="geometry" />
        </mxCell>
      </root>
    </mxGraphModel>
  </diagram>
</mxfile>
